<svg width="117" height="39" viewBox="0 0 117 39" fill="none" xmlns="http://www.w3.org/2000/svg">
<path d="M19.72 25.84C19.8 25.8133 19.9333 25.8 20.12 25.8C20.52 25.8 20.8267 25.9333 21.04 26.2C21.2533 26.4667 21.36 26.8267 21.36 27.28C21.36 28.1067 21.2 28.76 20.88 29.24C20.56 29.6933 20.08 30.0267 19.44 30.24C18.2133 30.64 16.9067 30.84 15.52 30.84C14.3467 30.84 13.24 30.68 12.2 30.36C11.4267 31.6133 10.5733 32.9067 9.64 34.24C8.57333 35.76 7.65333 36.8 6.88 37.36C6.10667 37.92 5.22667 38.2 4.24 38.2C3.14667 38.2 2.28 37.7733 1.64 36.92C1.02667 36.0667 0.64 34.72 0.48 32.88C0.16 29.1467 2.98023e-08 25.88 2.98023e-08 23.08V21.68C0.0266668 20.8 0.266667 20.1867 0.72 19.84C1.17333 19.4933 1.85333 19.32 2.76 19.32C3.45333 19.32 3.96 19.48 4.28 19.8C4.62667 20.0933 4.8 20.6 4.8 21.32C4.8 24.3867 4.98667 28.3733 5.36 33.28C6.96 30.9067 8.16 29.0133 8.96 27.6C8.56 26.8267 8.36 25.9067 8.36 24.84C8.36 23.9333 8.56 23.0533 8.96 22.2C9.36 21.3467 9.90667 20.6533 10.6 20.12C11.2933 19.5867 12.08 19.32 12.96 19.32C13.7333 19.32 14.36 19.6 14.84 20.16C15.32 20.6933 15.56 21.48 15.56 22.52C15.56 23.72 15.24 25.0933 14.6 26.64C15.6133 26.5867 16.96 26.3867 18.64 26.04L19.72 25.84ZM22.8088 38.2C21.1554 38.2 19.8354 37.6 18.8488 36.4C17.8621 35.2 17.3688 33.6267 17.3688 31.68C17.3688 29.5467 17.8621 27.5333 18.8488 25.64C19.8354 23.72 21.1421 22.1867 22.7688 21.04C24.4221 19.8667 26.1688 19.28 28.0088 19.28C28.5954 19.28 28.9821 19.4 29.1688 19.64C29.3821 19.8533 29.5554 20.2533 29.6888 20.84C30.2488 20.7333 30.8354 20.68 31.4488 20.68C32.7554 20.68 33.4088 21.1467 33.4088 22.08C33.4088 22.64 33.2088 23.9733 32.8088 26.08C32.1954 29.1467 31.8888 31.28 31.8888 32.48C31.8888 32.88 31.9821 33.2 32.1688 33.44C32.3821 33.68 32.6488 33.8 32.9688 33.8C33.4754 33.8 34.0888 33.48 34.8088 32.84C35.5288 32.1733 36.5021 31.1067 37.7288 29.64C38.0488 29.2667 38.4088 29.08 38.8088 29.08C39.1554 29.08 39.4221 29.24 39.6088 29.56C39.8221 29.88 39.9288 30.32 39.9288 30.88C39.9288 31.9467 39.6754 32.7733 39.1688 33.36C38.0754 34.72 36.9154 35.8667 35.6888 36.8C34.4621 37.7333 33.2754 38.2 32.1288 38.2C31.2488 38.2 30.4354 37.9067 29.6888 37.32C28.9688 36.7067 28.4221 35.88 28.0488 34.84C26.6621 37.08 24.9154 38.2 22.8088 38.2ZM24.2488 34.16C24.8354 34.16 25.3954 33.8133 25.9288 33.12C26.4621 32.4267 26.8488 31.5067 27.0888 30.36L28.5688 23C27.4488 23.0267 26.4088 23.4533 25.4488 24.28C24.5154 25.08 23.7688 26.1467 23.2088 27.48C22.6488 28.8133 22.3688 30.2267 22.3688 31.72C22.3688 32.5467 22.5288 33.16 22.8488 33.56C23.1954 33.96 23.6621 34.16 24.2488 34.16ZM39.5178 38.2C38.5045 38.2 37.7845 37.6667 37.3578 36.6C36.9578 35.5333 36.7578 33.8267 36.7578 31.48C36.7578 28.0133 37.2511 24.72 38.2378 21.6C38.4778 20.8267 38.8645 20.2667 39.3978 19.92C39.9578 19.5467 40.7311 19.36 41.7178 19.36C42.2511 19.36 42.6245 19.4267 42.8378 19.56C43.0511 19.6933 43.1578 19.9467 43.1578 20.32C43.1578 20.7467 42.9578 21.7067 42.5578 23.2C42.2911 24.2667 42.0778 25.2 41.9178 26C41.7578 26.8 41.6245 27.7867 41.5178 28.96C42.3978 26.6667 43.3845 24.8 44.4778 23.36C45.5711 21.92 46.6378 20.8933 47.6778 20.28C48.7445 19.6667 49.7178 19.36 50.5978 19.36C52.3311 19.36 53.1978 20.2267 53.1978 21.96C53.1978 23 52.9045 24.88 52.3178 27.6C51.8111 29.92 51.5578 31.4533 51.5578 32.2C51.5578 33.2667 51.9445 33.8 52.7178 33.8C53.2511 33.8 53.8778 33.48 54.5978 32.84C55.3445 32.1733 56.3311 31.1067 57.5578 29.64C57.8778 29.2667 58.2378 29.08 58.6378 29.08C58.9845 29.08 59.2511 29.24 59.4378 29.56C59.6511 29.88 59.7578 30.32 59.7578 30.88C59.7578 31.9467 59.5045 32.7733 58.9978 33.36C57.8511 34.7733 56.6111 35.9333 55.2778 36.84C53.9711 37.7467 52.4778 38.2 50.7978 38.2C49.4378 38.2 48.4111 37.8133 47.7178 37.04C47.0245 36.24 46.6778 35.0933 46.6778 33.6C46.6778 32.8533 46.8645 31.52 47.2378 29.6C47.5845 27.92 47.7578 26.76 47.7578 26.12C47.7578 25.6933 47.6111 25.48 47.3178 25.48C46.9711 25.48 46.4778 25.9333 45.8378 26.84C45.2245 27.72 44.5845 28.8933 43.9178 30.36C43.2778 31.8267 42.7578 33.3733 42.3578 35C42.0645 36.2533 41.7178 37.1067 41.3178 37.56C40.9445 37.9867 40.3445 38.2 39.5178 38.2ZM74.3616 29.08C74.7082 29.08 74.9749 29.24 75.1616 29.56C75.3749 29.88 75.4816 30.32 75.4816 30.88C75.4816 31.9467 75.2282 32.7733 74.7216 33.36C73.5749 34.7733 72.3216 35.9333 70.9616 36.84C69.6016 37.7467 68.0416 38.2 66.2816 38.2C60.8416 38.2 58.1216 34.3733 58.1216 26.72C58.1216 25.5467 58.1616 24.36 58.2416 23.16H56.6816C55.8816 23.16 55.3349 23.0133 55.0416 22.72C54.7749 22.4267 54.6416 21.96 54.6416 21.32C54.6416 19.8267 55.2416 19.08 56.4416 19.08H58.7216C59.1749 16.1467 59.8682 13.4667 60.8016 11.04C61.7349 8.61333 62.8549 6.68 64.1616 5.24C65.4949 3.8 66.9216 3.08 68.4416 3.08C69.5616 3.08 70.4416 3.57333 71.0816 4.56C71.7216 5.54667 72.0416 6.78667 72.0416 8.28C72.0416 12.4133 70.3082 16.0133 66.8416 19.08H71.3216C71.7482 19.08 72.0549 19.1733 72.2416 19.36C72.4282 19.5467 72.5216 19.8933 72.5216 20.4C72.5216 22.24 71.0149 23.16 68.0016 23.16H63.1216C63.0682 24.4933 63.0416 25.5333 63.0416 26.28C63.0416 29.0533 63.3616 31 64.0016 32.12C64.6682 33.24 65.7082 33.8 67.1216 33.8C68.2682 33.8 69.2816 33.4533 70.1616 32.76C71.0416 32.0667 72.0816 31.0267 73.2816 29.64C73.6016 29.2667 73.9616 29.08 74.3616 29.08ZM67.3616 6.92C66.9616 6.92 66.5082 7.42667 66.0016 8.44C65.5216 9.42667 65.0549 10.8133 64.6016 12.6C64.1749 14.36 63.8149 16.32 63.5216 18.48C65.0949 17.12 66.2682 15.6 67.0416 13.92C67.8416 12.2133 68.2416 10.6667 68.2416 9.28C68.2416 7.70667 67.9482 6.92 67.3616 6.92ZM90.0647 29.08C90.4114 29.08 90.678 29.24 90.8647 29.56C91.078 29.88 91.1847 30.32 91.1847 30.88C91.1847 31.9467 90.9314 32.7733 90.4247 33.36C89.438 34.56 88.038 35.6667 86.2247 36.68C84.438 37.6933 82.518 38.2 80.4647 38.2C77.6647 38.2 75.4914 37.44 73.9447 35.92C72.398 34.4 71.6247 32.32 71.6247 29.68C71.6247 27.84 72.0114 26.1333 72.7847 24.56C73.558 22.96 74.6247 21.6933 75.9847 20.76C77.3714 19.8267 78.9314 19.36 80.6647 19.36C82.2114 19.36 83.4514 19.8267 84.3847 20.76C85.318 21.6667 85.7847 22.9067 85.7847 24.48C85.7847 26.32 85.118 27.9067 83.7847 29.24C82.478 30.5467 80.2514 31.5867 77.1047 32.36C77.7714 33.5867 79.038 34.2 80.9047 34.2C82.1047 34.2 83.4647 33.7867 84.9847 32.96C86.5314 32.1067 87.8647 31 88.9847 29.64C89.3047 29.2667 89.6647 29.08 90.0647 29.08ZM79.9847 23.28C78.998 23.28 78.158 23.8533 77.4647 25C76.798 26.1467 76.4647 27.5333 76.4647 29.16V29.24C78.038 28.8667 79.278 28.3067 80.1847 27.56C81.0914 26.8133 81.5447 25.9467 81.5447 24.96C81.5447 24.4533 81.398 24.0533 81.1047 23.76C80.838 23.44 80.4647 23.28 79.9847 23.28ZM103.088 29.08C103.434 29.08 103.701 29.24 103.888 29.56C104.101 29.88 104.208 30.32 104.208 30.88C104.208 31.9467 103.954 32.7733 103.448 33.36C102.301 34.7733 101.048 35.9333 99.6878 36.84C98.3545 37.7467 96.8345 38.2 95.1278 38.2C92.7811 38.2 91.0345 37.1333 89.8878 35C88.7678 32.8667 88.2078 30.1067 88.2078 26.72C88.2078 23.4667 88.6211 19.76 89.4478 15.6C90.3011 11.44 91.5411 7.86667 93.1678 4.88C94.8211 1.89333 96.7811 0.399998 99.0478 0.399998C100.328 0.399998 101.328 0.999998 102.048 2.2C102.794 3.37333 103.168 5.06667 103.168 7.28C103.168 10.4533 102.288 14.1333 100.528 18.32C98.7678 22.5067 96.3811 26.6533 93.3678 30.76C93.5545 31.8533 93.8611 32.64 94.2878 33.12C94.7145 33.5733 95.2745 33.8 95.9678 33.8C97.0611 33.8 98.0211 33.4933 98.8478 32.88C99.6745 32.24 100.728 31.16 102.008 29.64C102.328 29.2667 102.688 29.08 103.088 29.08ZM98.1678 4.36C97.5545 4.36 96.8611 5.46667 96.0878 7.68C95.3145 9.89333 94.6345 12.64 94.0478 15.92C93.4611 19.2 93.1411 22.3467 93.0878 25.36C94.9811 22.24 96.4878 19.12 97.6078 16C98.7278 12.8533 99.2878 9.98666 99.2878 7.4C99.2878 5.37333 98.9145 4.36 98.1678 4.36ZM105.184 38.2C103.664 38.2 102.424 37.6 101.464 36.4C100.531 35.2 100.064 33.6267 100.064 31.68C100.064 29.5467 100.557 27.5333 101.544 25.64C102.531 23.72 103.837 22.1867 105.464 21.04C107.117 19.8667 108.864 19.28 110.704 19.28C111.291 19.28 111.677 19.4 111.864 19.64C112.077 19.8533 112.251 20.2533 112.384 20.84C112.891 20.7333 113.451 20.68 114.064 20.68C114.704 20.68 115.197 20.84 115.544 21.16C115.891 21.48 116.064 21.9333 116.064 22.52C116.064 23.1333 115.931 24.2 115.664 25.72C115.371 27.3467 115.144 28.9067 114.984 30.4C114.824 31.8667 114.744 33.52 114.744 35.36C114.744 36.3733 114.531 37.1067 114.104 37.56C113.704 37.9867 113.037 38.2 112.104 38.2C111.197 38.2 110.517 37.9867 110.064 37.56C109.637 37.1067 109.424 36.3867 109.424 35.4L109.464 34.76C108.637 37.0533 107.211 38.2 105.184 38.2ZM106.744 34.16C107.491 34.16 108.171 33.64 108.784 32.6C109.397 31.56 109.944 29.7067 110.424 27.04L111.184 23C110.091 23.0267 109.077 23.4533 108.144 24.28C107.211 25.08 106.464 26.1467 105.904 27.48C105.344 28.8133 105.064 30.2267 105.064 31.72C105.064 32.52 105.211 33.1333 105.504 33.56C105.824 33.96 106.237 34.16 106.744 34.16Z" fill="#1F3E97"/>
</svg>
